<?xml version="1.0" encoding="UTF-8"?>
<svg width="512px" height="512px" viewBox="0 0 512 512" version="1.1" xmlns="http://www.w3.org/2000/svg" xmlns:xlink="http://www.w3.org/1999/xlink">
    <title>Desmume</title>
    <defs>
        <linearGradient x1="100%" y1="13.1081525%" x2="0%" y2="86.8918475%" id="linearGradient-1">
            <stop stop-color="#32C5FF" offset="0%"></stop>
            <stop stop-color="#B620E0" offset="51.2583893%"></stop>
            <stop stop-color="#F7B500" offset="100%"></stop>
        </linearGradient>
    </defs>
    <g id="Desmume" stroke="none" stroke-width="1" fill="none" fill-rule="evenodd">
        <path d="M424,34.1399317 C428.103495,34.1399317 431.818512,35.8032015 434.507655,38.492345 C437.196798,41.1814884 438.860068,44.8965055 438.860068,49 L438.860068,242.860068 L72.1399317,242.860068 L72.1399317,49 C72.1399317,44.8965055 73.8032015,41.1814884 76.492345,38.492345 C79.1814884,35.8032015 82.8965055,34.1399317 87,34.1399317 Z" id="Rectangle" stroke="#000000" stroke-width="7.72013652" fill="#353535"></path>
        <path d="M438.860068,269.139932 L438.860068,463 C438.860068,467.103495 437.196798,470.818512 434.507655,473.507655 C431.818512,476.196798 428.103495,477.860068 424,477.860068 L87,477.860068 C82.8965055,477.860068 79.1814884,476.196798 76.492345,473.507655 C73.8032015,470.818512 72.1399317,467.103495 72.1399317,463 L72.1399317,269.139932 L438.860068,269.139932 Z" id="Rectangle-Copy" stroke="#000000" stroke-width="7.72013652" fill="#353535"></path>
        <rect id="Rectangle" stroke="#000000" stroke-width="5.14675768" fill="#353535" x="69.5733788" y="248.573379" width="371.853242" height="13.8532423" rx="6.92662116"></rect>
        <rect id="Rectangle" stroke="#000000" stroke-width="7.72013652" fill="url(#linearGradient-1)" x="173.139932" y="67.1399317" width="163.720137" height="141.720137" rx="10.2935154"></rect>
        <rect id="Rectangle-Copy-2" stroke="#000000" stroke-width="7.72013652" fill="url(#linearGradient-1)" x="174.139932" y="303.139932" width="163.720137" height="141.720137" rx="10.2935154"></rect>
        <g id="Group" transform="translate(362, 333)" fill="#454545" stroke="#000000" stroke-width="3.86006826">
            <circle id="Oval-Copy-3" cx="32" cy="9" r="10.9300341"></circle>
            <circle id="Oval-Copy-4" cx="9" cy="30" r="10.9300341"></circle>
            <circle id="Oval-Copy-7" cx="9" cy="30" r="10.9300341"></circle>
            <circle id="Oval-Copy-5" cx="55" cy="30" r="10.9300341"></circle>
            <circle id="Oval-Copy-6" cx="32" cy="52" r="10.9300341"></circle>
        </g>
        <rect id="Rectangle" stroke="#000000" stroke-width="4" fill="#454545" x="356" y="289" width="25" height="13" rx="6.5"></rect>
        <rect id="Rectangle-Copy-4" stroke="#000000" stroke-width="4" fill="#454545" x="396" y="289" width="25" height="13" rx="6.5"></rect>
        <path d="M128.904053,305.930034 C130.147636,305.930034 131.273489,306.434096 132.088447,307.249053 C132.903404,308.064011 133.407466,309.189864 133.407466,310.43333 L133.406849,320.591917 L143.566553,320.592534 C144.810136,320.592534 145.935989,321.096596 146.750947,321.911553 C147.565904,322.726511 148.069966,323.852364 148.069966,325.095947 L148.069966,333.904053 C148.069966,335.147636 147.565904,336.273489 146.750947,337.088447 C145.935989,337.903404 144.810136,338.407466 143.56667,338.407466 L133.406849,338.406849 L133.407466,348.566553 C133.407466,349.810136 132.903404,350.935989 132.088447,351.750947 C131.273489,352.565904 130.147636,353.069966 128.904053,353.069966 L120.095947,353.069966 C118.852364,353.069966 117.726511,352.565904 116.911553,351.750947 C116.096596,350.935989 115.592534,349.810136 115.592534,348.566436 L115.591917,338.406849 L105.433447,338.407466 C104.189864,338.407466 103.064011,337.903404 102.249053,337.088447 C101.434096,336.273489 100.930034,335.147636 100.930034,333.904053 L100.930034,325.095947 C100.930034,323.852364 101.434096,322.726511 102.249053,321.911553 C103.064011,321.096596 104.189864,320.592534 105.433564,320.592534 L115.591917,320.591917 L115.592534,310.433447 C115.592534,309.189864 116.096596,308.064011 116.911553,307.249053 C117.726511,306.434096 118.852364,305.930034 120.095947,305.930034 Z" id="Combined-Shape" stroke="#000000" stroke-width="3.86006826" fill="#D8D8D8"></path>
    </g>
</svg>