<?xml version="1.0" encoding="UTF-8"?>
<svg width="512px" height="512px" viewBox="0 0 512 512" version="1.1" xmlns="http://www.w3.org/2000/svg" xmlns:xlink="http://www.w3.org/1999/xlink">
    <title>DolphiniOS</title>
    <defs>
        <linearGradient x1="1.2128564%" y1="92.9211411%" x2="66.3712948%" y2="20.7464846%" id="linearGradient-1">
            <stop stop-color="#94D11F" offset="0%"></stop>
            <stop stop-color="#09D3BF" offset="100%"></stop>
        </linearGradient>
        <linearGradient x1="100%" y1="34.8691359%" x2="0%" y2="65.1308641%" id="linearGradient-2">
            <stop stop-color="#32C5FF" offset="0%"></stop>
            <stop stop-color="#B620E0" offset="51.2583893%"></stop>
            <stop stop-color="#F7B500" offset="100%"></stop>
        </linearGradient>
        <linearGradient x1="50%" y1="0%" x2="50%" y2="100%" id="linearGradient-3">
            <stop stop-color="#FF0000" offset="0%"></stop>
            <stop stop-color="#1C2CFF" offset="100%"></stop>
        </linearGradient>
        <linearGradient x1="50%" y1="0%" x2="50%" y2="100%" id="linearGradient-4">
            <stop stop-color="#00C0FF" offset="0%"></stop>
            <stop stop-color="#008CFF" offset="100%"></stop>
        </linearGradient>
    </defs>
    <g id="DolphiniOS" stroke="none" stroke-width="1" fill="none" fill-rule="evenodd">
        <rect id="Rectangle" fill="url(#linearGradient-1)" x="0" y="0" width="512" height="512"></rect>
        <rect id="Rectangle" fill="#000000" x="140" y="296" width="233" height="47" rx="8"></rect>
        <rect id="Rectangle" stroke="#000000" stroke-width="10" fill="url(#linearGradient-2)" x="26" y="66" width="459" height="248" rx="8"></rect>
        <path d="M439.880227,232.966489 C420.593305,202.420996 404.005624,180.586806 376.368287,158.410535 C367.478719,151.277582 359.057917,144.903423 350.290502,139.181817 L350.300528,139.183573 C350.300528,139.183573 350.23096,139.141427 350.103691,139.060824 C349.945526,138.957919 349.787157,138.855014 349.628787,138.752284 C346.374639,136.596014 332.561495,126.620696 337.469112,115.607193 C342.854497,103.521613 373.185345,98.1199624 373.185345,98.1199624 C373.185345,98.1199624 358.31804,93.7849443 332.302457,95.2171896 C307.886529,96.5614561 285.948656,108.81474 281.84762,110.537262 C268.698237,107.306808 253.695071,104.457946 236.148783,101.90305 C175.459055,93.066012 124.095332,107.152977 98.3213958,122.506063 C64.5397683,142.629145 65.4744354,161.379687 62.689463,170.758471 C60.6854942,177.507373 40.3071731,190.913161 47.2343086,198.217507 C51.5561209,202.774491 65.938086,196.5863 77.5399893,192.490809 C89.737927,188.184766 90.6779141,185.842528 124.014101,181.573714 C139.35099,179.609733 155.492208,179.046212 167.509474,178.959638 C172.185878,187.4344 183.812949,204.854549 203.957603,213.210249 C231.15748,224.492254 265.137581,224.350364 265.137581,224.350364 C265.137581,224.350364 245.61065,217.387924 233.597477,207.078427 C225.422004,200.062427 223.465505,189.405405 223.049325,183.311514 L223.122781,183.317309 C242.805012,186.527042 259.996912,188.843289 301.11183,202.357426 C337.085669,214.181704 361.658534,231.377428 361.658534,231.377428 C361.658534,231.377428 336.393262,204.337564 293.755009,186.288744 C258.745506,171.46915 230.001014,164.147243 190.174537,162.489519 C146.64213,160.677438 114.565943,165.474652 114.565943,165.474652 C114.565943,165.474652 115.463166,148.873355 148.327518,135.642647 C176.904842,124.137622 221.862576,122.212098 273.459556,133.50903 C346.354792,149.469187 371.21616,176.646024 402.572113,204.730219 C435.945745,234.62193 464.804001,284.927 464.804001,284.927 C464.804001,284.927 455.905634,258.347751 439.880227,232.967367 L439.880227,232.966489 Z" id="Path" stroke="#000000" stroke-width="10" fill="url(#linearGradient-3)" fill-rule="nonzero" stroke-linejoin="round"></path>
        <rect id="Rectangle" stroke="#000000" stroke-width="8" fill="#FFFFFF" x="26" y="369" width="461" height="128" rx="17"></rect>
        <rect id="Rectangle" stroke="url(#linearGradient-4)" stroke-width="7" fill="#000000" x="79.5" y="396.5" width="355" height="19" rx="9.5"></rect>
        <rect id="Rectangle" stroke="#000000" stroke-width="4" x="158" y="432" width="213" height="47" rx="8"></rect>
        <rect id="Rectangle-Copy" stroke="#000000" stroke-width="4" x="419" y="432" width="17" height="47" rx="8"></rect>
        <rect id="Rectangle-Copy-2" stroke="#000000" stroke-width="4" x="78" y="432" width="17" height="47" rx="8"></rect>
        <rect id="Rectangle-Copy-3" stroke="#000000" stroke-width="4" x="120" y="432" width="10" height="47" rx="5"></rect>
    </g>
</svg>