<?xml version="1.0" encoding="UTF-8"?>
<svg width="512px" height="357px" viewBox="0 0 512 357" version="1.1" xmlns="http://www.w3.org/2000/svg" xmlns:xlink="http://www.w3.org/1999/xlink">
    <title>Dolphin.icns</title>
    <defs>
        <linearGradient x1="100%" y1="31.7133649%" x2="-6.07153217e-16%" y2="68.2866351%" id="linearGradient-1">
            <stop stop-color="#FF0000" offset="0%"></stop>
            <stop stop-color="#D500FF" offset="100%"></stop>
        </linearGradient>
        <linearGradient x1="50%" y1="0%" x2="50%" y2="100%" id="linearGradient-2">
            <stop stop-color="#FF0000" offset="0%"></stop>
            <stop stop-color="#1C2CFF" offset="100%"></stop>
        </linearGradient>
    </defs>
    <g id="Dolphin.icns" stroke="none" stroke-width="1" fill="none" fill-rule="evenodd">
        <rect id="Rectangle-Copy-4" fill="#000000" x="63.5279337" y="253.872492" width="368.312372" height="72.127508" rx="8"></rect>
        <rect id="Rectangle" stroke="#000000" stroke-width="14" fill="url(#linearGradient-1)" x="33" y="38" width="445" height="263.584098" rx="8"></rect>
        <path d="M323.495479,80.6755782 C347.72555,79.2161813 361.963111,83.4757167 363.063347,83.8188146 L363.114978,83.8350715 C363.126467,83.8387326 363.132226,83.8406067 363.132226,83.8406067 C363.132226,83.8406067 370.172291,86.1316495 381.073492,93.0086174 C372.049831,92.0405746 362.568876,93.5118187 362.568876,93.5118187 C362.568876,93.5118187 337.605274,97.3856429 333.205873,108.187019 C332.115042,110.865245 332.6786,113.428029 333.753992,115.667466 C336.17306,120.705021 341.113206,124.481866 342.739281,125.662095 L343.16723,125.966289 C351.583113,131.974049 359.50025,138.525209 367.855488,145.859911 C393.853336,168.682483 409.490489,191.127826 427.635798,222.568798 C446.902364,255.952025 440.103515,256.795568 439.528781,256.809638 L439.491692,256.809371 L431.543828,256.293004 C430.159309,254.018213 414.432564,228.614731 385.295909,200.063694 C382.866907,197.683542 380.479854,195.309838 378.105402,192.948603 C377.087686,191.936551 376.072371,190.926788 375.057022,189.919822 L373.533667,188.411534 C349.657825,164.816551 325.089824,142.906665 268.201816,129.279873 C221.826994,118.171426 181.355321,119.82387 155.635122,131.152443 C140.76256,137.703007 133.618911,145.121879 130.249838,150.39006 L130.111,150.608 L130.30582,150.588726 C141.855259,149.378623 164.238143,147.531014 191.554013,148.706167 L192.555564,148.750516 C230.113283,150.460824 257.224157,158.002345 290.240961,173.292795 C329.126053,191.300875 352.775778,217.943648 354.607243,220.044061 C355.804894,221.417586 366.129286,233.463312 376.635983,253.092951 C362.211538,237.828527 349.761392,228.735796 347.888344,227.366851 C345.378282,225.532336 323.884653,209.811483 293.252889,198.796224 C261.33262,187.317588 245.201228,183.915411 230.04225,181.186267 L228.967403,180.993506 L228.585,180.925 L228.606424,181.029585 C229.55315,185.63771 231.516441,190.902521 235.573652,194.893999 L235.916623,195.223633 C246.096334,204.781259 262.467266,211.289969 263.44036,211.67189 L263.505432,211.697203 C264.143538,211.942186 280.235565,218.06701 294.172342,218.093843 C278.650087,221.110599 265.289407,221.34052 262.090819,221.34812 L261.718388,221.34802 L261.645492,221.347733 C258.404204,221.332661 227.775998,220.865227 203.011236,209.627244 C184.956183,201.433984 173.745255,185.232766 168.365324,175.44806 C157.832301,175.61019 144.524741,176.230543 131.823573,178.009964 C112.913653,180.659171 105.665627,182.502872 100.106887,184.599813 L99.7345869,184.741576 C99.302958,184.907441 98.8803929,185.07502 98.4620394,185.244828 L97.9640805,185.448624 L97.2106001,185.762289 C96.9609314,185.867106 96.7110103,185.972781 96.4631482,186.077984 L95.9455784,186.298119 C93.8595426,187.18747 92.0834565,187.943774 89.9427562,188.77054 C88.5414911,189.311708 87.0958768,189.889546 85.6329344,190.47418 C84.4601001,190.942879 83.2763782,191.415888 82.0877746,191.881534 L81.3196049,192.18106 C76.1894337,194.171423 71.14327,195.871566 67.146076,196.362307 C62.0785283,196.984456 58.496998,195.675748 56.3306188,193.176664 C54.886462,191.510656 54.1218098,189.677065 53.8724285,187.730454 C53.6410838,185.924632 53.8766773,183.983426 54.5828529,181.962546 C55.8151019,178.436188 58.6887543,174.492067 61.8680346,170.712899 L62.3950419,170.089761 C62.9263127,169.464559 63.4603336,168.844195 63.9877108,168.231601 C66.4660267,165.352822 69.038436,162.796546 69.5793071,160.803713 C69.9158895,159.563627 70.1831273,158.146431 70.4856504,156.57604 C72.6129219,145.533417 75.8727569,127.83749 104.634222,109.093598 C129.127339,93.1313557 177.909435,78.2979796 235.640769,87.494806 C251.246524,89.9808439 264.70278,92.7415881 276.562952,95.847718 C276.76784,95.7393513 276.986866,95.6232297 277.219653,95.5001194 C284.468878,91.666334 303.104968,81.9037953 323.495479,80.6755782 Z" id="Path" stroke="#000000" stroke-width="10" fill="url(#linearGradient-2)" fill-rule="nonzero"></path>
    </g>
</svg>