<?xml version="1.0" encoding="UTF-8"?>
<svg width="512px" height="512px" viewBox="0 0 512 512" version="1.1" xmlns="http://www.w3.org/2000/svg" xmlns:xlink="http://www.w3.org/1999/xlink">
    <title>Lime3DS</title>
    <defs>
        <linearGradient x1="100%" y1="35.2841384%" x2="0%" y2="64.7158616%" id="linearGradient-1">
            <stop stop-color="#32C5FF" offset="0%"></stop>
            <stop stop-color="#B620E0" offset="51.2583893%"></stop>
            <stop stop-color="#F7B500" offset="100%"></stop>
        </linearGradient>
        <linearGradient x1="100%" y1="13.1081525%" x2="0%" y2="86.8918475%" id="linearGradient-2">
            <stop stop-color="#32C5FF" offset="0%"></stop>
            <stop stop-color="#B620E0" offset="51.2583893%"></stop>
            <stop stop-color="#F7B500" offset="100%"></stop>
        </linearGradient>
        <linearGradient x1="74.7606681%" y1="25.5936864%" x2="93.7124586%" y2="92.55476%" id="linearGradient-3">
            <stop stop-color="#B2F219" offset="0%"></stop>
            <stop stop-color="#B2F219" stop-opacity="0" offset="100%"></stop>
        </linearGradient>
        <linearGradient x1="84.6034887%" y1="69.9293178%" x2="65.1875771%" y2="47.2884045%" id="linearGradient-4">
            <stop stop-color="#F7F7C4" offset="0%"></stop>
            <stop stop-color="#FEFEF2" offset="100%"></stop>
        </linearGradient>
        <linearGradient x1="31.6908553%" y1="131.385666%" x2="-63.7558699%" y2="-48.6827393%" id="linearGradient-5">
            <stop stop-color="#B2F219" offset="0%"></stop>
            <stop stop-color="#B2F219" stop-opacity="0" offset="100%"></stop>
        </linearGradient>
        <linearGradient x1="3.78175292%" y1="91.2481995%" x2="-122.674536%" y2="-31.4789958%" id="linearGradient-6">
            <stop stop-color="#B2F219" offset="0%"></stop>
            <stop stop-color="#B2F219" stop-opacity="0" offset="100%"></stop>
        </linearGradient>
        <linearGradient x1="3.23819671%" y1="57.9734611%" x2="-111.629978%" y2="-27.3434812%" id="linearGradient-7">
            <stop stop-color="#B2F219" offset="0%"></stop>
            <stop stop-color="#B2F219" stop-opacity="0" offset="100%"></stop>
        </linearGradient>
        <linearGradient x1="7.5343448%" y1="17.5922387%" x2="-114.28946%" y2="-124.116373%" id="linearGradient-8">
            <stop stop-color="#B2F219" offset="0%"></stop>
            <stop stop-color="#B2F219" stop-opacity="0" offset="100%"></stop>
        </linearGradient>
        <linearGradient x1="59.3065318%" y1="-0.573530047%" x2="-50.4025108%" y2="-175.509814%" id="linearGradient-9">
            <stop stop-color="#B2F219" offset="0%"></stop>
            <stop stop-color="#B2F219" stop-opacity="0" offset="100%"></stop>
        </linearGradient>
        <linearGradient x1="129.589453%" y1="10.4527992%" x2="-8.31033179%" y2="-170.495836%" id="linearGradient-10">
            <stop stop-color="#B2F219" offset="0%"></stop>
            <stop stop-color="#B2F219" stop-opacity="0" offset="100%"></stop>
        </linearGradient>
        <linearGradient x1="137.996597%" y1="56.7442939%" x2="4.06381269%" y2="-32.0834777%" id="linearGradient-11">
            <stop stop-color="#B2F219" offset="0%"></stop>
            <stop stop-color="#B2F219" stop-opacity="0" offset="100%"></stop>
        </linearGradient>
        <linearGradient x1="133.375544%" y1="121.835959%" x2="-5.77024119%" y2="-66.6370453%" id="linearGradient-12">
            <stop stop-color="#B2F219" offset="0%"></stop>
            <stop stop-color="#B2F219" stop-opacity="0" offset="100%"></stop>
        </linearGradient>
        <linearGradient x1="64.1805358%" y1="135.548156%" x2="0.28719143%" y2="-46.541461%" id="linearGradient-13">
            <stop stop-color="#B2F219" offset="0%"></stop>
            <stop stop-color="#B2F219" stop-opacity="0" offset="100%"></stop>
        </linearGradient>
        <linearGradient x1="50.2414513%" y1="75.0729095%" x2="85.85374%" y2="50.6425756%" id="linearGradient-14">
            <stop stop-color="#B2F219" offset="0%"></stop>
            <stop stop-color="#B2F219" stop-opacity="0" offset="100%"></stop>
        </linearGradient>
        <linearGradient x1="67.0729896%" y1="44.3824732%" x2="87.9036794%" y2="72.0995205%" id="linearGradient-15">
            <stop stop-color="#B2F219" offset="0%"></stop>
            <stop stop-color="#B2F219" stop-opacity="0" offset="100%"></stop>
        </linearGradient>
        <linearGradient x1="26.9931922%" y1="42.7198731%" x2="19.9656913%" y2="38.3674098%" id="linearGradient-16">
            <stop stop-color="#B2F219" offset="0%"></stop>
            <stop stop-color="#B2F219" stop-opacity="0" offset="100%"></stop>
        </linearGradient>
    </defs>
    <g id="Lime3DS" stroke="none" stroke-width="1" fill="none" fill-rule="evenodd">
        <path d="M393.825939,34.1399317 C406.26177,34.1399317 417.520303,39.1805484 425.669877,47.3301229 C433.819452,55.4796975 438.860068,66.7382299 438.860068,79.1740614 L438.860068,242.860068 L72.1399317,242.860068 L72.1399317,79.1740614 C72.1399317,66.7382299 77.1805484,55.4796975 85.3301229,47.3301229 C93.4796975,39.1805484 104.73823,34.1399317 117.174061,34.1399317 Z" id="Rectangle" stroke="#000000" stroke-width="7.72013652" fill="#353535"></path>
        <path d="M438.860068,269.139932 L438.860068,432.825939 C438.860068,445.26177 433.819452,456.520303 425.669877,464.669877 C417.520303,472.819452 406.26177,477.860068 393.825939,477.860068 L117.174061,477.860068 C104.73823,477.860068 93.4796975,472.819452 85.3301229,464.669877 C77.1805484,456.520303 72.1399317,445.26177 72.1399317,432.825939 L72.1399317,269.139932 L438.860068,269.139932 Z" id="Rectangle-Copy" stroke="#000000" stroke-width="7.72013652" fill="#353535"></path>
        <rect id="Rectangle" stroke="#000000" stroke-width="5.14675768" fill="#353535" x="69.5733788" y="248.573379" width="371.853242" height="13.8532423" rx="6.92662116"></rect>
        <rect id="Rectangle" stroke="#000000" stroke-width="7.72013652" fill="url(#linearGradient-1)" x="127.139932" y="67.1399317" width="254.720137" height="141.720137" rx="10.2935154"></rect>
        <rect id="Rectangle-Copy-2" stroke="#000000" stroke-width="7.72013652" fill="url(#linearGradient-2)" x="174.139932" y="303.139932" width="163.720137" height="141.720137" rx="10.2935154"></rect>
        <circle id="Oval" stroke="#000000" stroke-width="3.86006826" fill="#898989" cx="122.5" cy="327.5" r="26.4300341"></circle>
        <circle id="Oval-Copy" stroke="#000000" stroke-width="3.86006826" fill="#FFFFFF" cx="122" cy="328" r="14.9300341"></circle>
        <circle id="Oval-Copy-2" stroke="#000000" stroke-width="3.86006826" fill="#FFFFFF" cx="369" cy="298" r="10.9300341"></circle>
        <circle id="Oval-Copy-3" stroke="#000000" stroke-width="3.86006826" fill="#454545" cx="394" cy="318" r="10.9300341"></circle>
        <circle id="Oval-Copy-4" stroke="#000000" stroke-width="3.86006826" fill="#454545" cx="371" cy="339" r="10.9300341"></circle>
        <circle id="Oval-Copy-7" stroke="#000000" stroke-width="3.86006826" fill="#454545" cx="371" cy="339" r="10.9300341"></circle>
        <circle id="Oval-Copy-5" stroke="#000000" stroke-width="3.86006826" fill="#454545" cx="417" cy="339" r="10.9300341"></circle>
        <circle id="Oval-Copy-6" stroke="#000000" stroke-width="3.86006826" fill="#454545" cx="394" cy="361" r="10.9300341"></circle>
        <circle id="Oval-Copy-8" stroke="#000000" stroke-width="3.86006826" fill="#454545" cx="368.5" cy="427.5" r="6.43003413"></circle>
        <circle id="Oval-Copy-9" stroke="#000000" stroke-width="3.86006826" fill="#454545" cx="368.5" cy="404.5" r="6.43003413"></circle>
        <path d="M126.904053,365.930034 C128.147636,365.930034 129.273489,366.434096 130.088447,367.249053 C130.903404,368.064011 131.407466,369.189864 131.407466,370.43333 L131.406849,380.591917 L141.566553,380.592534 C142.810136,380.592534 143.935989,381.096596 144.750947,381.911553 C145.565904,382.726511 146.069966,383.852364 146.069966,385.095947 L146.069966,393.904053 C146.069966,395.147636 145.565904,396.273489 144.750947,397.088447 C143.935989,397.903404 142.810136,398.407466 141.56667,398.407466 L131.406849,398.406849 L131.407466,408.566553 C131.407466,409.810136 130.903404,410.935989 130.088447,411.750947 C129.273489,412.565904 128.147636,413.069966 126.904053,413.069966 L118.095947,413.069966 C116.852364,413.069966 115.726511,412.565904 114.911553,411.750947 C114.096596,410.935989 113.592534,409.810136 113.592534,408.566436 L113.591917,398.406849 L103.433447,398.407466 C102.189864,398.407466 101.064011,397.903404 100.249053,397.088447 C99.4340958,396.273489 98.9300341,395.147636 98.9300341,393.904053 L98.9300341,385.095947 C98.9300341,383.852364 99.4340958,382.726511 100.249053,381.911553 C101.064011,381.096596 102.189864,380.592534 103.433564,380.592534 L113.591917,380.591917 L113.592534,370.433447 C113.592534,369.189864 114.096596,368.064011 114.911553,367.249053 C115.726511,366.434096 116.852364,365.930034 118.095947,365.930034 Z" id="Combined-Shape" stroke="#000000" stroke-width="3.86006826" fill="#D8D8D8"></path>
        <g id="lime-copy" transform="translate(199, 81)">
            <g id="layer3" transform="translate(8.2163, 16.9611)" fill-rule="nonzero">
                <ellipse id="path6" fill="#123E1F" cx="50.1437712" cy="48.9032259" rx="50.1437712" ry="48.9032259"></ellipse>
                <ellipse id="path2" fill="url(#linearGradient-3)" cx="50.6336014" cy="48.6269856" rx="46.7847177" ry="45.598032"></ellipse>
                <ellipse id="path7" fill="#123E1F" cx="44.4711993" cy="50.277648" rx="43.8971828" ry="43.7561456"></ellipse>
                <ellipse id="path8" fill="url(#linearGradient-4)" cx="44.3449192" cy="50.3287077" rx="40.3146076" ry="40.1400768"></ellipse>
            </g>
            <g id="layer6" transform="translate(15.4026, 31.029)" fill-rule="nonzero">
                <path d="M45.4604615,0.812246177 C43.4507089,0.79461857 42.6221269,1.41165124 42.2342833,3.10407059 C41.8464397,4.79648994 37.1302083,28.5610464 37.1302083,28.5610464 C37.1302083,28.5610464 36.6103883,30.9632124 37.5533138,31.258342 C38.0596475,31.4168214 38.4700411,31.6990744 40.620832,29.2485895 C42.7716174,26.7981045 57.686807,12.1368853 57.686807,12.1368853 C57.686807,12.1368853 59.6000303,10.0266554 59.537736,8.89294671 C59.4754055,7.75855583 59.1144078,7.1767482 57.4128185,5.81173751 C55.4817684,4.2626632 47.8488815,0.83320009 45.4604615,0.812246177 L45.4604615,0.812246177 Z" id="path3" fill="url(#linearGradient-5)"></path>
                <path d="M65.1094062,12.3245891 C63.2876835,11.2758189 62.1772408,11.3383366 60.8494473,12.4803278 C59.5216659,13.622307 41.1865635,30.2099642 41.1865635,30.2099642 C37.3307,33.8711458 40.8624993,33.6696236 44.2840782,32.8265471 C47.655159,31.9913184 66.7499629,24.9639399 66.7499629,24.9639399 C66.7499629,24.9639399 69.708624,23.8971014 70.3044855,22.9662731 C70.9007031,22.0348835 70.906583,21.3877813 70.141406,19.4295231 C69.2543751,16.6047171 67.5895562,14.0334046 65.1094062,12.3245891 Z" id="path3-5" fill="url(#linearGradient-6)"></path>
                <path d="M72.69724,28.5147196 C71.7250171,26.7556836 70.7804671,26.3372452 69.1158897,26.8310899 C67.4513123,27.3249345 43.8111996,33.7796815 41.367663,35.0719239 C40.6207294,35.4669272 39.5095236,35.9279314 39.5778354,36.7324023 C39.6614537,37.7168921 39.8763898,38.1957775 43.0674836,38.8648478 C46.2585816,39.5339181 68.2935497,44.6282122 68.2935497,44.6282122 C68.2935497,44.6282122 71.2959478,45.3323687 72.2527345,44.7209986 C73.2100887,44.1092844 73.4396883,43.533912 73.7923914,41.3811767 C74.1926467,38.9382076 73.8526391,30.6051727 72.69724,28.5146954 L72.69724,28.5147196 Z" id="path9" fill="url(#linearGradient-7)"></path>
                <path d="M69.3173274,47.0875471 C68.5319873,46.5716982 47.9159087,41.8312119 43.5254029,40.5665579 C37.9592963,38.9632787 37.1330149,40.889952 39.4717873,43.9314629 C43.1689691,48.7395437 49.3090813,62.4842662 54.7310255,66.6713724 C59.0239637,69.9866062 75.4167452,51.0939401 69.3173274,47.0875471 L69.3173274,47.0875471 Z" id="path3-2" fill="url(#linearGradient-8)"></path>
                <path d="M39.0861103,72.5589993 C41.5508271,72.575661 45.4483878,72.6563798 48.260456,71.6319139 C51.7572058,70.3580174 51.4245572,69.1701099 50.2801391,66.600554 C47.2476654,59.7917639 37.9421142,43.4730062 37.9421142,43.4730062 C36.5947299,40.5322202 35.0828643,39.6545767 32.4155363,45.008238 C31.6320471,46.5808017 27.8857893,54.0512429 25.5408563,60.4443053 C22.7017979,68.1845153 22.8523026,68.8200328 26.8876942,70.3147332 C30.9524829,71.8203241 38.0969256,72.5523165 39.0861103,72.5589993 L39.0861103,72.5589993 Z" id="path3-5-9" fill="url(#linearGradient-9)"></path>
                <path d="M32.1501955,40.1765289 C31.0007819,36.9379752 5.97140362,46.0008474 5.97140362,46.0008474 C3.43934268,47.1864006 2.80800509,48.2686029 4.59997636,51.8899896 C5.64126328,53.9943215 10.2581202,60.2569093 14.2339094,63.7476042 C18.7833443,67.7419537 20.1647463,66.97633 21.8240125,63.6659196 C25.9591654,55.4158552 32.9593613,42.4564124 32.1501955,40.1765289 L32.1501955,40.1765289 Z" id="path10" fill="url(#linearGradient-10)"></path>
                <path d="M0.962580522,41.3765343 C1.81127798,43.2996399 2.74366915,43.9059632 4.48975129,43.7703997 C6.23581592,43.6348301 26.4235153,38.6349041 26.4235153,38.6349041 C31.9448496,38.3509728 28.9822476,35.0176225 25.4733118,34.6930511 C21.8731856,34.3600523 7.11491799,30.2144012 7.11491799,30.2144012 C2.31624253,29.0870795 1.21829312,30.0555536 0.472342269,32.6008352 C-0.360360555,35.4421278 -0.0266802076,38.5317947 0.962580522,41.3765343 Z" id="path12" fill="url(#linearGradient-11)"></path>
                <path d="M30.6285382,33.6346763 C33.8117056,32.3397474 23.0220324,10.6005186 23.0220324,10.6005186 C20.4216554,2.91457985 14.2752503,7.58899878 14.2752503,7.58899878 C11.8202854,8.89233095 6.89016418,14.5872072 4.41857439,19.3103617 C1.49582772,24.8956691 2.90232426,26.2575889 6.34224501,27.6283286 C14.795671,30.9968618 28.3876455,34.5462832 30.6285382,33.6346763 L30.6285382,33.6346763 Z" id="path11" fill="url(#linearGradient-12)"></path>
                <path d="M27.3107586,1.65108486 C25.4447164,2.61882844 24.1582868,3.42791751 24.6458465,5.11001384 C25.399137,7.70888462 29.3606562,23.484386 32.6958786,28.9307251 C33.7370352,30.6309078 35.0172323,30.7232535 35.7664515,28.6556801 C36.9890094,25.2818646 38.9428443,5.57448923 38.9428443,5.57448923 C39.6124019,1.19873147 39.7180649,0.434997266 35.9816538,0.0752129677 C32.666417,-0.244009723 30.0877854,0.485205763 27.3107586,1.65108486 L27.3107586,1.65108486 Z" id="path13" fill="url(#linearGradient-13)"></path>
            </g>
            <g id="layer2" transform="translate(31.6803, 61.7097)">
                <path d="M14.3427874,12.4128374 C14.3427874,12.4128374 16.3996545,13.8775769 18.9676214,13.8775769 C21.5856042,13.8775769 23.9185281,12.2108745 23.9185281,12.2108745" id="path4" stroke="#123E1F" stroke-width="3.56174261" stroke-linecap="round"></path>
                <g id="layer5" transform="translate(29.315, 0)" fill-rule="nonzero">
                    <circle id="path1-1" fill="#123E1F" cx="6.57574354" cy="6.57574354" r="6.57574354"></circle>
                    <circle id="path5" fill="#FFFFFF" cx="5.6792167" cy="4.42979965" r="2.08026783"></circle>
                </g>
                <g id="layer4" transform="translate(0, 0.4924)" fill-rule="nonzero">
                    <circle id="path1" fill="#123E1F" cx="6.08334168" cy="6.08334168" r="6.08334168"></circle>
                    <circle id="path5-9" fill="#FFFFFF" cx="5.13873434" cy="3.93445785" r="1.79666932"></circle>
                </g>
            </g>
            <g id="layer7" transform="translate(9.8771, 0.903)" fill-rule="nonzero">
                <path d="M51.6392998,16.3656477 C51.6392998,16.3656477 49.8504115,16.1857742 52.7666396,16.2738561 C53.9428659,16.309383 53.7123668,13.3119285 53.9134845,11.0768305 C54.3258136,5.14454418 53.6212647,-0.156154065 60.7323623,0.00351704555 C68.2664621,0.172686539 64.9445334,9.52482293 63.3854923,15.1139577 C62.9448745,16.6935519 62.7177983,18.0772739 63.9921778,18.4617326 C65.5806606,18.9409536 63.8355335,19.9080331 63.5006452,18.6647706" id="path14" fill="#123E1F"></path>
                <path d="M53.0114098,19.2265407 C53.1532094,19.1548622 53.9938169,18.7550348 55.0898556,15.8917518 C56.3489498,12.6025012 54.1850583,1.96918242 59.5191965,1.90834182 C66.262016,1.83143414 62.8901384,7.60715656 61.6278145,12.1576106 C60.5663669,16.5523476 59.9717431,19.2693318 62.1503222,20.6630465 C62.5537529,20.9211346 64.6158268,21.5850307 65.5326556,22.2081926 C66.9310984,23.1586998 52.0173516,22.1778333 52.0173516,22.1778333 C52.0173516,22.1778333 51.6699368,20.0116611 52.4414827,19.3394063 C52.5594548,19.2366138 52.8965768,19.2789756 53.0114098,19.2265407 L53.0114098,19.2265407 Z" id="path17" fill="url(#linearGradient-14)"></path>
                <path d="M54.5570974,5.10353524 C54.5570974,5.10353524 48.4737558,0.815278634 38.1520116,0.715551048 C27.8302795,0.615823462 19.8022644,6.05094429 14.9156459,10.1397439 C10.029028,14.2285447 5.94022477,21.6582016 3.89582254,27.8911322 C1.85142152,34.1240617 0.255794033,41.952627 0.156066447,42.6507165 C0.0563388616,43.3488 -0.352027606,44.7355192 0.754426529,45.8419715 C1.98796364,47.0755116 25.0367559,46.3599032 38.4511944,35.7695566 C43.1882221,32.0297993 47.2770344,26.2456385 47.2770344,26.2456385 C47.2770344,26.2456385 51.9041365,17.7169788 53.3603821,9.74083659 C53.4874216,9.04500791 55.0782226,9.44552526 55.0190796,9.91501244 C54.1615327,16.7227262 56.3463358,11.2449538 54.5570974,5.10353524 L54.5570974,5.10353524 Z" id="path15" fill="#123E1F"></path>
                <path d="M49.4425739,7.08107631 C49.4425739,7.08107631 44.7890545,4.70108489 36.8904375,4.9655485 C28.0045399,5.26306871 20.647216,10.0415153 16.1935328,14.6969737 C11.6900008,19.4045391 8.57941145,24.925539 6.67889758,33.7870544 C4.89222969,42.117741 4.01120187,42.3386354 4.08599786,42.3884998 C4.16079385,42.4383642 23.0593808,41.2403208 34.5597974,33.2428684 C46.2368063,25.1226157 48.6809586,15.0317038 49.2274688,10.1131063 C49.4777567,7.86051599 49.4425739,7.08107631 49.4425739,7.08107631 L49.4425739,7.08107631 Z" id="path16" fill="url(#linearGradient-15)"></path>
                <path d="M49.8861376,6.87397185 C49.3877049,7.03062332 41.7131191,7.958805 37.6323805,9.14385593 C35.716204,9.70031542 33.5536691,10.496022 31.1293062,11.368521 C18.3081418,15.9827042 11.8780101,28.3985182 11.3138693,29.8793821 C10.7497285,31.360252 11.807493,31.2192131 11.807493,31.2192131 C11.807493,31.2192131 12.0895607,31.2897356 14.0287955,28.9979111 C22.2935325,18.9104144 32.1888751,11.3222419 45.3781318,10.1818202 C55.0937072,9.34175419 48.5523012,9.83294265 49.4590364,9.71598226 C53.4463771,9.20165576 49.8861376,6.87397185 49.8861376,6.87397185 L49.8861376,6.87397185 Z" id="path18" fill="#123E1F"></path>
                <path d="M22.9757378,16.2842848 C22.9757378,16.2842848 21.3362049,15.0678573 19.4322301,15.4909622 C17.5282566,15.9140676 16.6291574,17.6946358 16.8230798,18.1177413 C17.0170034,18.5408467 20.296071,18.08248 20.296071,18.08248 L21.3714644,18.9815786 L23.4164721,17.3596751 L22.9757378,16.2842848 Z" id="path32" fill="#123E1F"></path>
                <path d="M26.9067185,15.1164999 C26.9067185,15.1164999 28.3246047,16.5148364 28.3109808,18.4652092 C28.3059702,19.1825291 28.0947486,20.5541266 27.6393798,21.4758675 C27.1396111,22.4874809 26.3814562,22.9878297 26.1252281,22.2119874 C25.8873858,21.4918157 25.9984204,19.9567662 25.4719145,17.8800131 L24.5336742,17.1702194 L25.7705672,14.8718015 L26.9067185,15.1164999 Z" id="path32-0-0-1" fill="#123E1F"></path>
                <path d="M37.3099915,9.24201816 C37.3099915,9.24201816 36.0332009,7.64904205 34.0841997,7.5746614 C32.1351996,7.50028074 30.8133229,8.99408223 30.8934162,9.45256846 C30.9735138,9.91105408 34.261464,10.3006037 34.261464,10.3006037 L35.0732177,11.4433659 L37.4631217,10.3940867 L37.3099915,9.24201816 Z" id="path32-0" fill="#123E1F"></path>
                <path d="M38.9351235,8.85640458 C38.9351235,8.85640458 40.5191071,10.0236003 40.8409866,11.947277 C41.0452181,13.1678439 40.7427157,13.983984 40.4963572,14.7439597 C40.1939441,15.6768561 39.5343462,16.2502701 39.2561458,15.8396894 C38.8475245,15.236629 38.6678521,13.5497478 38.0301052,11.7292675 C37.8538116,11.2003862 36.9087153,11.252812 36.9087153,11.252812 L39.0000281,10.1216062 L38.9351235,8.85640458 Z" id="path32-0-0" fill="#123E1F"></path>
                <path d="M64.6124039,21.7040521 C64.2778356,21.5439342 62.5637741,20.9450417 62.0589061,20.5866477 C61.7542443,20.3703745 61.4880976,20.1247663 61.3011001,19.8808552 C61.17822,19.7205726 61.104184,19.5564378 61.024244,19.4179729 C60.837482,19.0944919 60.0269742,20.6552094 60.0269742,20.6552094 L64.33393,21.8675143 L64.6124039,21.7040521 Z" id="path33" fill="url(#linearGradient-16)"></path>
            </g>
        </g>
    </g>
</svg>